<mxfile host="app.diagrams.net" modified="2024-07-01T06:17:48.355Z" agent="Mozilla/5.0 (Windows NT 10.0; Win64; x64) AppleWebKit/537.36 (KHTML, like Gecko) Chrome/124.0.0.0 YaBrowser/24.6.0.0 Safari/537.36" version="24.4.3" etag="jrqiFEx4IlzlNxi29w0B" type="github">
  <diagram name="Страница — 1" id="hHgwry9APfw5cxw4JIlt">
    <mxGraphModel>
      <root>
        <mxCell id="0" />
        <mxCell id="1" parent="0" />
      </root>
    </mxGraphModel>
  </diagram>
</mxfile>
